<?xml version="1.0" encoding="UTF-8"?>
<svg width="26px" height="43px" viewBox="0 0 26 43" version="1.1" xmlns="http://www.w3.org/2000/svg" xmlns:xlink="http://www.w3.org/1999/xlink">
    <title>down arrow</title>
    <g id="R7" stroke="none" stroke-width="1" fill="none" fill-rule="evenodd">
        <g id="Parallel_storyboards-desktop" transform="translate(-93.000000, -2052.000000)" fill="#FFFFFF">
            <g id="Group-7" transform="translate(93.000000, 1994.000000)">
                <g id="down-arrow" transform="translate(0.000000, 58.000000)">
                    <path d="M10.8,2.21475312 L10.8,39.1852469 C10.8,40.4033583 11.7449713,41.4 12.899918,41.4 C14.0550287,41.4 15,40.4033583 15,39.1852469 L15,2.21475312 C15,0.996641691 14.0550287,0 12.899918,0 C11.7448073,0 10.8,0.996641691 10.8,2.21475312 Z" id="Fill-6"></path>
                    <g id="Group-5" transform="translate(0.000000, 27.000000)">
                        <path d="M17.699918,-0.6 C16.5449713,-0.6 15.6,0.396641691 15.6,1.61475312 L15.6,14.5852469 C15.6,15.8033583 16.5449713,16.8 17.699918,16.8 C18.8550287,16.8 19.8,15.8033583 19.8,14.5852469 L19.8,1.61475312 C19.8,0.396641691 18.8550287,-0.6 17.699918,-0.6" id="Fill-6" transform="translate(17.700000, 8.100000) rotate(45.000000) translate(-17.700000, -8.100000) "></path>
                        <path d="M8.099918,-0.6 C6.9449713,-0.6 6,0.396641691 6,1.61475312 L6,14.5852469 C6,15.8033583 6.9449713,16.8 8.099918,16.8 C9.2550287,16.8 10.2,15.8033583 10.2,14.5852469 L10.2,1.61475312 C10.2,0.396641691 9.2550287,-0.6 8.099918,-0.6" id="Fill-6" transform="translate(8.100000, 8.100000) scale(-1, 1) rotate(45.000000) translate(-8.100000, -8.100000) "></path>
                    </g>
                </g>
            </g>
        </g>
    </g>
</svg>