<?xml version="1.0" encoding="UTF-8"?>
<svg width="43px" height="72px" viewBox="0 0 43 72" version="1.1" xmlns="http://www.w3.org/2000/svg" xmlns:xlink="http://www.w3.org/1999/xlink">
    <title>Group 6</title>
    <g id="R7" stroke="none" stroke-width="1" fill="none" fill-rule="evenodd">
        <g id="Parallel_storyboards-desktop" transform="translate(-175.000000, -827.000000)" fill="#FF8E6E">
            <g id="Group-6" transform="translate(175.000000, 827.000000)">
                <path d="M18,3.6912552 L18,65.3087448 C18,67.3389305 19.5749522,69 21.4998633,69 C23.4250478,69 25,67.3389305 25,65.3087448 L25,3.6912552 C25,1.66106948 23.4250478,0 21.4998633,0 C19.5746788,0 18,1.66106948 18,3.6912552 Z" id="Fill-6"></path>
                <g id="Group-5" transform="translate(0.000000, 45.000000)">
                    <path d="M29.4998633,-1 C27.5749522,-1 26,0.661069484 26,2.6912552 L26,24.3087448 C26,26.3389305 27.5749522,28 29.4998633,28 C31.4250478,28 33,26.3389305 33,24.3087448 L33,2.6912552 C33,0.661069484 31.4250478,-1 29.4998633,-1" id="Fill-6" transform="translate(29.500000, 13.500000) rotate(45.000000) translate(-29.500000, -13.500000) "></path>
                    <path d="M13.4998633,-1 C11.5749522,-1 10,0.661069484 10,2.6912552 L10,24.3087448 C10,26.3389305 11.5749522,28 13.4998633,28 C15.4250478,28 17,26.3389305 17,24.3087448 L17,2.6912552 C17,0.661069484 15.4250478,-1 13.4998633,-1" id="Fill-6" transform="translate(13.500000, 13.500000) scale(-1, 1) rotate(45.000000) translate(-13.500000, -13.500000) "></path>
                </g>
            </g>
        </g>
    </g>
</svg>