<?xml version="1.0" encoding="UTF-8"?>
<svg width="490px" height="164px" viewBox="0 0 490 164" version="1.1" xmlns="http://www.w3.org/2000/svg" xmlns:xlink="http://www.w3.org/1999/xlink">
    <title>Parallel_WORDMARK/black</title>
    <g id="R7" stroke="none" stroke-width="1" fill="none" fill-rule="evenodd">
        <g id="Parallel_storyboards-desktop-A-1-Copy" transform="translate(-175.000000, -155.000000)" fill="#FFFFFF">
            <g id="Parallel_WORDMARK_custom_black" transform="translate(175.000000, 155.000000)">
                <polygon id="Fill-1" points="158.738685 119.68882 177.563015 119.68882 177.563015 44.3111796 158.738685 44.3111796"></polygon>
                <path d="M128.465505,43.6637725 C123.289145,43.6637725 119.054075,48.0554371 119.054075,53.423 L119.054075,119.68882 L137.877425,119.68882 L137.877425,53.423 C137.877425,48.0554371 133.64211,43.6637725 128.465505,43.6637725" id="Fill-2"></path>
                <path d="M88.780895,81.5954012 C83.604535,81.5954012 79.36922,85.9870659 79.36922,91.3546287 L79.36922,110.577 C79.36922,115.944563 83.604535,120.336228 88.780895,120.336228 C93.9575,120.336228 98.192815,115.944563 98.192815,110.577 L98.192815,91.3546287 C98.192815,85.9870659 93.9575,81.5954012 88.780895,81.5954012" id="Fill-3"></path>
                <polygon id="Fill-4" points="0 163.932731 18.82237 163.932731 18.82237 44.3111796 0 44.3111796"></polygon>
                <path d="M207.83595,43.6637725 C202.6591,43.6637725 198.424275,48.0554371 198.424275,53.423 L198.424275,72.2407725 C198.424275,77.6080898 202.6591,82 207.83595,82 C213.0128,82 217.24885,77.6080898 217.24885,72.2407725 L217.24885,53.423 C217.24885,48.0554371 213.0128,43.6637725 207.83595,43.6637725" id="Fill-5"></path>
                <path d="M49.09604,43.6637725 C43.919925,43.6637725 39.684855,48.0554371 39.684855,53.423 L39.684855,110.577 C39.684855,115.944563 43.919925,120.336228 49.09604,120.336228 C54.27289,120.336228 58.50796,115.944563 58.50796,110.577 L58.50796,53.423 C58.50796,48.0554371 54.27289,43.6637725 49.09604,43.6637725" id="Fill-6"></path>
                <polygon id="Fill-7" points="312.4338 119.68882 331.25715 119.68882 331.25715 0.0672694611 312.4338 0.0672694611"></polygon>
                <path d="M440.90445,81.5954012 C435.7276,81.5954012 431.49155,85.9870659 431.49155,91.3546287 L431.49155,110.577 C431.49155,115.944563 435.7276,120.336228 440.90445,120.336228 C446.0813,120.336228 450.3149,115.944563 450.3149,110.577 L450.3149,91.3546287 C450.3149,85.9870659 446.0813,81.5954012 440.90445,81.5954012" id="Fill-8"></path>
                <path d="M401.21935,43.6637725 C396.0425,43.6637725 391.80645,48.0554371 391.80645,53.423 L391.80645,110.577 C391.80645,115.944563 396.0425,120.336228 401.21935,120.336228 C406.3962,120.336228 410.6298,115.944563 410.6298,110.577 L410.6298,53.423 C410.6298,48.0554371 406.3962,43.6637725 401.21935,43.6637725" id="Fill-9"></path>
                <polygon id="Fill-10" points="471.17665 119.68882 490 119.68882 490 0.0672694611 471.17665 0.0672694611"></polygon>
                <polygon id="Fill-11" points="352.1189 119.68882 370.9447 119.68882 370.9447 0.0672694611 352.1189 0.0672694611"></polygon>
                <path d="M242.47405,81.5954012 C237.2972,81.5954012 233.06115,85.9870659 233.06115,91.3546287 L233.06115,110.577 C233.06115,115.944563 237.2972,120.336228 242.47405,120.336228 C247.6509,120.336228 251.8845,115.944563 251.8845,110.577 L251.8845,91.3546287 C251.8845,85.9870659 247.6509,81.5954012 242.47405,81.5954012" id="Fill-12"></path>
                <path d="M282.1616,43.6637725 C276.9823,43.6637725 272.7487,48.0554371 272.7487,53.423 L272.7487,119.68882 L291.57205,119.68882 L291.57205,53.423 C291.57205,48.0554371 287.336,43.6637725 282.1616,43.6637725" id="Fill-13"></path>
            </g>
        </g>
    </g>
</svg>